<?xml version="1.0" encoding="UTF-8" standalone="no"?>
<!DOCTYPE svg PUBLIC "-//W3C//DTD SVG 1.1//EN" "http://www.w3.org/Graphics/SVG/1.1/DTD/svg11.dtd">
<svg width="100%" height="100%" viewBox="0 0 573 117" version="1.1" xmlns="http://www.w3.org/2000/svg" xmlns:xlink="http://www.w3.org/1999/xlink" xml:space="preserve" xmlns:serif="http://www.serif.com/" style="fill-rule:evenodd;clip-rule:evenodd;stroke-linejoin:round;stroke-miterlimit:2;">
    <path d="M78.465,39.385C78.465,17.631 60.902,0 39.234,0C17.567,0 0,17.631 0,39.385L8.299,102.301C8.535,104.108 9.836,105.598 11.591,106.074L36.994,112.963C38.46,113.359 40.005,113.359 41.474,112.963L66.878,106.074C68.633,105.598 69.929,104.108 70.17,102.301L78.469,39.385L78.465,39.385ZM17.169,89.851L17.169,72.847L20.799,72.847L24.971,84.65L29.143,72.847L32.774,72.847L32.774,89.851L28.993,89.851L28.993,82.575L26.271,89.851L23.671,89.851L20.949,82.575L20.949,89.851L17.169,89.851ZM46.567,75.906L46.567,72.843L37.19,72.843L37.19,89.847L46.567,89.847L46.567,86.787L41.275,86.787L41.275,82.365L45.751,82.365L45.751,79.306L41.275,79.306L41.275,75.906L46.567,75.906ZM50.103,89.851L50.103,72.846L55.7,72.846C57.414,72.846 58.774,73.231 59.782,73.997C60.789,74.763 61.292,75.778 61.292,77.042L61.292,85.659C61.292,86.915 60.789,87.927 59.782,88.696C58.774,89.466 57.414,89.851 55.7,89.851L50.103,89.851ZM54.185,86.791L55.696,86.791C56.181,86.791 56.553,86.685 56.816,86.478C57.079,86.27 57.211,85.995 57.211,85.655L57.211,77.038C57.211,76.699 57.079,76.423 56.816,76.216C56.553,76.008 56.181,75.902 55.696,75.902L54.185,75.902L54.185,86.791ZM17.169,90.851L17.169,100.339L19.277,100.339L19.277,97.049L20.059,97.049C20.311,97.049 20.502,97.106 20.638,97.223C20.773,97.34 20.84,97.495 20.84,97.683L20.84,100.339L22.949,100.339L22.949,97.683C22.949,97.317 22.825,97.004 22.577,96.748C22.459,96.624 22.318,96.516 22.151,96.422C22.34,96.268 22.496,96.093 22.622,95.895C22.84,95.552 22.949,95.159 22.949,94.71L22.949,93.19C22.949,92.488 22.69,91.922 22.167,91.492C21.648,91.066 20.946,90.851 20.059,90.851L17.169,90.851ZM20.059,95.344L19.277,95.344L19.277,92.556L20.059,92.556C20.311,92.556 20.502,92.613 20.638,92.73C20.773,92.846 20.84,93.001 20.84,93.19L20.84,94.71C20.84,94.903 20.773,95.054 20.638,95.171C20.502,95.287 20.307,95.344 20.059,95.344ZM30.744,90.85L30.744,98.204C30.744,98.906 30.485,99.468 29.963,99.902C29.44,100.332 28.737,100.547 27.854,100.547C26.971,100.547 26.272,100.332 25.749,99.902C25.227,99.471 24.964,98.906 24.964,98.204L24.964,90.85L27.072,90.85L27.072,98.204C27.072,98.392 27.14,98.547 27.275,98.664C27.411,98.781 27.602,98.837 27.854,98.837C28.106,98.837 28.298,98.781 28.433,98.664C28.568,98.547 28.636,98.396 28.636,98.204L28.636,90.85L30.744,90.85ZM32.946,90.85L32.946,100.343L34.901,100.343L34.901,95.487L37.009,100.339L38.573,100.339L38.573,90.847L36.618,90.847L36.618,95.703L34.51,90.85L32.946,90.85ZM40.85,100.343L40.85,90.85L42.414,90.85L44.522,95.703L44.522,90.847L46.477,90.847L46.477,100.339L44.913,100.339L42.805,95.487L42.805,100.343L40.85,100.343ZM53.596,92.56L53.596,90.85L48.755,90.85L48.755,100.343L53.596,100.343L53.596,98.634L50.863,98.634L50.863,96.166L53.175,96.166L53.175,94.457L50.863,94.457L50.863,92.56L53.596,92.56ZM55.426,100.339L55.426,90.85L58.316,90.85C59.203,90.85 59.906,91.066 60.424,91.492C60.947,91.922 61.206,92.488 61.206,93.19L61.206,94.71C61.206,95.159 61.097,95.551 60.879,95.895C60.753,96.093 60.597,96.268 60.408,96.421C60.575,96.515 60.717,96.624 60.834,96.747C61.082,97.004 61.206,97.317 61.206,97.683L61.206,100.339L59.097,100.339L59.097,97.683C59.097,97.494 59.03,97.34 58.895,97.223C58.759,97.106 58.567,97.049 58.316,97.049L57.534,97.049L57.534,100.339L55.426,100.339ZM57.534,95.344L58.316,95.344C58.564,95.344 58.759,95.287 58.895,95.17C59.03,95.053 59.097,94.903 59.097,94.71L59.097,93.19C59.097,93.001 59.03,92.846 58.895,92.729C58.759,92.612 58.567,92.556 58.316,92.556L57.534,92.556L57.534,95.344ZM50.878,39.872L64.521,47.779C65.171,48.157 65.397,48.998 65.021,49.651L60.564,57.4C60.188,58.053 59.35,58.279 58.699,57.902L45.056,49.994L45.056,65.806C45.056,66.561 44.444,67.176 43.692,67.176L34.777,67.176C34.025,67.176 33.413,66.561 33.413,65.806L33.413,49.994L19.77,57.902C19.119,58.279 18.281,58.053 17.905,57.4L13.448,49.651C13.072,48.998 13.298,48.157 13.948,47.779L27.591,39.872L13.948,31.964C13.298,31.586 13.072,30.745 13.448,30.092L17.905,22.343C18.281,21.69 19.119,21.464 19.77,21.841L33.413,29.749L33.413,13.937C33.413,13.182 34.025,12.567 34.777,12.567L43.692,12.567C44.444,12.567 45.056,13.182 45.056,13.937L45.056,29.749L58.699,21.841C59.35,21.464 60.188,21.69 60.564,22.343L65.021,30.092C65.397,30.745 65.171,31.586 64.521,31.964L50.878,39.872Z" style="fill:white;"/>
    <path d="M561.371,29.998L475.619,29.998C469.197,29.998 463.99,35.224 463.99,41.671L463.99,74.918C463.99,81.365 469.197,86.591 475.619,86.591L561.371,86.591C567.795,86.591 573,81.365 573,74.918L573,41.671C573,35.224 567.795,29.998 561.371,29.998ZM481.485,74.959L481.485,41.003L489.829,41.003C492.385,41.003 494.415,41.769 495.919,43.301C497.423,44.833 498.173,46.859 498.173,49.379L498.173,53.001C498.173,54.314 497.96,55.51 497.531,56.589C497.322,57.116 497.069,57.6 496.772,58.042C497.171,58.523 497.514,59.069 497.801,59.679C498.349,60.841 498.625,62.161 498.625,63.641L498.625,66.583C498.625,69.089 497.872,71.111 496.369,72.65C494.865,74.19 492.837,74.959 490.281,74.959L481.485,74.959ZM487.575,55.265L489.829,55.265C490.551,55.265 491.107,55.057 491.498,54.642C491.889,54.227 492.084,53.68 492.084,53.001L492.084,49.379C492.084,48.7 491.889,48.153 491.498,47.738C491.107,47.323 490.551,47.115 489.829,47.115L487.575,47.115L487.575,55.265ZM487.575,68.847L490.281,68.847C491.003,68.847 491.559,68.64 491.95,68.225C492.341,67.81 492.535,67.263 492.535,66.583L492.535,63.641C492.535,62.962 492.341,62.414 491.95,61.999C491.559,61.584 491.003,61.377 490.281,61.377L487.575,61.377L487.575,68.847ZM518.153,47.115L518.153,41.003L504.171,41.003L504.171,74.959L518.153,74.959L518.153,68.847L510.261,68.847L510.261,60.019L516.936,60.019L516.936,53.907L510.261,53.907L510.261,47.115L518.153,47.115ZM525.55,74.959L525.55,47.115L520.589,47.115L520.589,41.003L536.6,41.003L536.6,47.115L531.639,47.115L531.639,74.959L525.55,74.959ZM543.229,41.003L536.826,74.959L543.049,74.959L543.861,69.662L549.093,69.662L549.858,74.959L556.084,74.959L549.814,41.003L543.229,41.003ZM548.189,63.55L544.762,63.55L546.513,51.987L548.189,63.55Z" style="fill:white;"/>
    <g transform="matrix(1.16807,0,0,1.16807,-18.1,-24.9017)">
        <g transform="matrix(72,0,0,72,400.605,100)">
        </g>
        <text x="99px" y="100px" style="font-family:'Anton-Regular', 'Anton';font-size:72px;fill:white;">MED-TOOLS</text>
    </g>
</svg>
